<?xml version="1.0" encoding="utf-8"?>
<svg id="master-artboard" viewBox="0 0 1400 980" version="1.1" xmlns="http://www.w3.org/2000/svg" x="0px" y="0px" style="enable-background:new 0 0 1400 980;" width="1400px" height="980px">

<path class="st0" d="M1129.4,632.4c47.9,0,87-38.7,87.2-86.6c0-0.3,0-0.6,0-0.9c0-217.3-228.9-465.8-511.3-465.8&#10;&#9;&#9;S194,327.6,194,544.8c0,0.3,0,0.6,0,0.9c0.1,47.9,39.2,86.6,87.2,86.6H1129.4z" style="fill: rgb(86, 193, 241);" transform="matrix(1, 0, 0, 1, -2.842170943040401e-14, 0)"/><path d="M 1150.300048828125 612.7000122070312 L 1111.9000244140625 507 L 1064.5999755859375 376.6000061035156 L 1017.2000122070312 507 L 978.7999877929688 612.7000122070312 Z" class="st1" style="opacity: 0.54; fill: rgb(43, 153, 191);" transform="matrix(1, 0, 0, 1, -2.842170943040401e-14, 0)"/><path d="M 1039.5 612.7000122070312 L 1006.9000244140625 523.0999755859375 L 967.0999755859375 413.3999938964844 L 927.2000122070312 523.0999755859375 L 894.7000122070312 612.7000122070312 Z" class="st1" style="opacity: 0.54; fill: rgb(43, 153, 191);" transform="matrix(1, 0, 0, 1, -2.842170943040401e-14, 0)"/><path class="st1" d="M887.9,632.4l0.4-20.6l-272-144.9c-79.2-42.2-171.5-52.8-258.2-29.5c-53.7,14.4-113.1,32-158.9,49.9&#10;&#9;&#9;c-3.4,19.3-5.1,38.5-5.1,57.6c0,0.3,0,0.6,0,0.9c0.1,47.9,39.2,86.6,87.2,86.6H887.9z" style="opacity: 0.54; fill: rgb(43, 153, 191);" transform="matrix(1, 0, 0, 1, -2.842170943040401e-14, 0)"/><path class="st2" d="M1189.1,553.9v-17.8h-14.1v-13.3h-16.5v13.3h-44.4v-13.3h-16.5v13.3h-44.4v-13.3h-16.5v13.3h-44.4v-13.3h-16.5&#10;&#9;&#9;v13.3h-44.4v-13.3h-16.5v13.3h-44.4v-13.3H854v13.3h-44.4v-13.3h-16.5v13.3H763h-14.1v-13.3h-16.5v13.3H688v-13.3h-16.5v13.3h-21&#10;&#9;&#9;h-23.4v-13.3h-16.5v13.3h-44.4v-13.3h-16.5v13.3h-44.4v-13.3h-16.5v13.3h-44.4v-13.3h-16.5v13.3h-44.4v-13.3h-16.5v13.3h-44.4&#10;&#9;&#9;v-13.3H306v13.3h-44.4v-13.3h-16.5v13.3h-20.8v17.8h20.8v16.3h-20.8v17.8h20.8v25h16.5v-25H306v25h16.5v-25h44.4v25h16.5v-25h44.4&#10;&#9;&#9;v25h16.5v-25h44.4v25h16.5v-25h44.4v25h16.5v-25h44.4v25h16.5v-25h23.4h21v25H688v-25h44.4v25h16.5v-25H763h30.1v25h16.5v-25H854&#10;&#9;&#9;v25h16.5v-25h44.4v25h16.5v-25h44.4v25h16.5v-25h44.4v25h16.5v-25h44.4v25h16.5v-25h44.4v25h16.5v-25h14.1v-17.8h-14.1v-16.3&#10;&#9;&#9;H1189.1z M261.6,570.1v-16.3H306v16.3H261.6z M322.5,570.1v-16.3h44.4v16.3H322.5z M383.5,570.1v-16.3h44.4v16.3H383.5z&#10;&#9;&#9; M444.4,570.1v-16.3h44.4v16.3H444.4z M505.3,570.1v-16.3h44.4v16.3H505.3z M566.2,570.1v-16.3h44.4v16.3H566.2z M650.5,570.1&#10;&#9;&#9;h-23.4v-16.3h23.4h21v16.3H650.5z M688,570.1v-16.3h44.4v16.3H688z M763,570.1h-14.1v-16.3H763h30.1v16.3H763z M809.6,570.1v-16.3&#10;&#9;&#9;H854v16.3H809.6z M870.5,570.1v-16.3h44.4v16.3H870.5z M931.4,570.1v-16.3h44.4v16.3H931.4z M992.3,570.1v-16.3h44.4v16.3H992.3z&#10;&#9;&#9; M1053.2,570.1v-16.3h44.4v16.3H1053.2z M1158.5,570.1h-44.4v-16.3h44.4V570.1z" style="fill: rgb(43, 153, 191);" transform="matrix(1, 0, 0, 1, -2.842170943040401e-14, 0)"/><path class="st3" d="M1253,845.7c0,30.3-24.8,55.2-55.2,55.2H204.3c-15.2,0-29-6.2-39-16.2c-10-10-16.2-23.8-16.2-39&#10;&#9;&#9;c0-30.3,24.8-55.2,55.2-55.2h103.9c10.8,0,20.2-7.8,22-18.4c0-0.2,0.1-0.3,0.1-0.5c2.3-13.6-8.3-25.9-22.1-25.9H211&#10;&#9;&#9;c-35.2,0-64-28.8-64-64v-5c0-35.2,28.8-64,64-64h975.9c35.2,0,64,28.8,64,64v5c0,35.2-28.8,64-64,64h-122.3&#10;&#9;&#9;c-8.9,0-16.7,5.3-20.2,13c-1.1,2.5-1.8,5.2-2,8c0,0.1,0,0.3,0,0.4c-0.6,12.7,9.4,23.3,22.1,23.3l75.7,0.1l57.5,0&#10;&#9;&#9;c15.2,0,29,6.2,39,16.2C1246.8,816.8,1253,830.6,1253,845.7z" style="fill: rgb(93, 216, 93);" transform="matrix(1, 0, 0, 1, -2.842170943040401e-14, 0)"/><path d="M 854.4000244140625 472.20001220703125 L 836.4000244140625 472.20001220703125 L 836.9000244140625 472.3999938964844 L 836.9000244140625 612.5 L 583.2000122070312 612.5 L 583.2000122070312 472.3999938964844 L 583.7000122070312 472.20001220703125 L 565.7000122070312 472.20001220703125 L 565.7000122070312 458.5 L 576.7999877929688 458.5 L 613.5 357.70001220703125 L 710 315.8999938964844 L 806.5 357.70001220703125 L 843.2999877929688 458.5 L 854.4000244140625 458.5 Z" class="st4" style="fill: rgb(229, 57, 57);" transform="matrix(1, 0, 0, 1, -5.684341886080802e-14, 0)"/><path d="M 764.0999755859375 339.29998779296875 L 656 339.29998779296875 L 647 343.20001220703125 L 773 343.20001220703125 Z" class="st6" style="fill: rgb(158, 29, 29); opacity: 0.46;" transform="matrix(1, 0, 0, 1, -8.526512829121202e-14, 0)"/><path d="M 806.5 357.70001220703125 L 801.7000122070312 355.6000061035156 L 618.4000244140625 355.6000061035156 L 613.5 357.70001220703125 L 612.9000244140625 359.5 L 807.2000122070312 359.5 Z" class="st6" style="fill: rgb(158, 29, 29); opacity: 0.46;" transform="matrix(1, 0, 0, 1, -8.526512829121202e-14, 0)"/><path d="M 811.7000122070312 371.8999938964844 L 608.4000244140625 371.8999938964844 L 607 375.79998779296875 L 813.0999755859375 375.79998779296875 Z" class="st6" style="fill: rgb(158, 29, 29); opacity: 0.46;" transform="matrix(1, 0, 0, 1, -8.526512829121202e-14, 0)"/><path d="M 817.5999755859375 388.20001220703125 L 602.4000244140625 388.20001220703125 L 601 392 L 819.0999755859375 392 Z" class="st6" style="fill: rgb(158, 29, 29); opacity: 0.46;" transform="matrix(1, 0, 0, 1, -8.526512829121202e-14, 0)"/><path d="M 823.5999755859375 404.3999938964844 L 596.5 404.3999938964844 L 595.0999755859375 408.29998779296875 L 825 408.29998779296875 Z" class="st6" style="fill: rgb(158, 29, 29); opacity: 0.46;" transform="matrix(1, 0, 0, 1, -8.526512829121202e-14, 0)"/><path d="M 829.5 420.70001220703125 L 590.5999755859375 420.70001220703125 L 589.0999755859375 424.6000061035156 L 830.9000244140625 424.6000061035156 Z" class="st6" style="fill: rgb(158, 29, 29); opacity: 0.46;" transform="matrix(1, 0, 0, 1, -8.526512829121202e-14, 0)"/><path d="M 835.4000244140625 437 L 584.5999755859375 437 L 583.2000122070312 440.8999938964844 L 836.9000244140625 440.8999938964844 Z" class="st6" style="fill: rgb(158, 29, 29); opacity: 0.46;" transform="matrix(1, 0, 0, 1, -8.526512829121202e-14, 0)"/><path d="M 841.4000244140625 453.29998779296875 L 578.7000122070312 453.29998779296875 L 577.2999877929688 457.20001220703125 L 842.7999877929688 457.20001220703125 Z" class="st6" style="fill: rgb(158, 29, 29); opacity: 0.46;" transform="matrix(1, 0, 0, 1, -8.526512829121202e-14, 0)"/><path d="M 836.9000244140625 472.3999938964844 L 836.4000244140625 472.20001220703125 L 854.4000244140625 472.20001220703125 L 854.4000244140625 469.6000061035156 L 565.7000122070312 469.6000061035156 L 565.7000122070312 472.20001220703125 L 583.7000122070312 472.20001220703125 L 583.2000122070312 472.3999938964844 L 583.2000122070312 473.5 L 836.9000244140625 473.5 Z" class="st6" style="fill: rgb(158, 29, 29); opacity: 0.46;" transform="matrix(1, 0, 0, 1, -8.526512829121202e-14, 0)"/><path d="M 583.200012 485.899994 H 836.900009 V 489.799994 H 583.200012 V 485.899994 Z" class="st6" style="fill: rgb(158, 29, 29); opacity: 0.46;" transform="matrix(1, 0, 0, 1, -8.526512829121202e-14, 0)"/><path d="M 583.200012 502.200012 H 836.900009 V 506.100012 H 583.200012 V 502.200012 Z" class="st6" style="fill: rgb(158, 29, 29); opacity: 0.46;" transform="matrix(1, 0, 0, 1, -8.526512829121202e-14, 0)"/><path d="M 583.200012 518.400024 H 836.900009 V 522.300025 H 583.200012 V 518.400024 Z" class="st6" style="fill: rgb(158, 29, 29); opacity: 0.46;" transform="matrix(1, 0, 0, 1, -8.526512829121202e-14, 0)"/><path d="M 583.200012 534.700012 H 836.900009 V 538.600012 H 583.200012 V 534.700012 Z" class="st6" style="fill: rgb(158, 29, 29); opacity: 0.46;" transform="matrix(1, 0, 0, 1, -8.526512829121202e-14, 0)"/><path d="M 583.200012 551 H 836.900009 V 554.9 H 583.200012 V 551 Z" class="st6" style="fill: rgb(158, 29, 29); opacity: 0.46;" transform="matrix(1, 0, 0, 1, -8.526512829121202e-14, 0)"/><path d="M 583.200012 567.299988 H 836.900009 V 571.199988 H 583.200012 V 567.299988 Z" class="st6" style="fill: rgb(158, 29, 29); opacity: 0.46;" transform="matrix(1, 0, 0, 1, -8.526512829121202e-14, 0)"/><path d="M 583.200012 583.599976 H 836.900009 V 587.499976 H 583.200012 V 583.599976 Z" class="st6" style="fill: rgb(158, 29, 29); opacity: 0.46;" transform="matrix(1, 0, 0, 1, -8.526512829121202e-14, 0)"/><path d="M 583.200012 599.900024 H 836.900009 V 603.800025 H 583.200012 V 599.900024 Z" class="st6" style="fill: rgb(158, 29, 29); opacity: 0.46;" transform="matrix(1, 0, 0, 1, -8.526512829121202e-14, 0)"/><path class="st7" d="M663.7,505.9v106.6h6.8v-98.9h72.6v98.9h6.8V505.9H663.7z" style="fill: rgb(244, 244, 244);" transform="matrix(1, 0, 0, 1, -5.684341886080802e-14, 0)"/><path d="M 741.9000244140625 612.5999755859375 L 666.0999755859375 510.1000061035156 L 674.2000122070312 510.1000061035156 L 750 612.5999755859375 Z" class="st7" style="fill: rgb(244, 244, 244);" transform="matrix(1, 0, 0, 1, -8.526512829121202e-14, 0)"/><path d="M 666.0999755859375 612.5999755859375 L 741.9000244140625 510.1000061035156 L 750 510.1000061035156 L 674.2000122070312 612.5999755859375 Z" class="st7" style="fill: rgb(244, 244, 244);" transform="matrix(1, 0, 0, 1, -8.526512829121202e-14, 0)"/><path d="M 602.299988 504.600006 H 647.399986 V 569.400009 H 602.299988 V 504.600006 Z" class="st7" style="fill: rgb(244, 244, 244);" transform="matrix(1, 0, 0, 1, -8.526512829121202e-14, 0)"/><path d="M 607.700012 510 H 641.800011 V 563.900002 H 607.700012 V 510 Z" class="st8" style="fill: rgb(66, 66, 66);" transform="matrix(1, 0, 0, 1, -8.526512829121202e-14, 0)"/><path class="st9" d="M607.7,563.9l34.1-53.9v53.9C641.9,563.9,607.1,563.3,607.7,563.9z" style="fill: rgb(34, 35, 34);" transform="matrix(1, 0, 0, 1, -8.526512829121202e-14, 0)"/><path d="M 767.5 504.600006 H 812.599998 V 569.400009 H 767.5 V 504.600006 Z" class="st7" style="fill: rgb(244, 244, 244);" transform="matrix(1, 0, 0, 1, -8.526512829121202e-14, 0)"/><path d="M 773 510 H 807.099998 V 563.900002 H 773 V 510 Z" class="st8" style="fill: rgb(66, 66, 66);" transform="matrix(1, 0, 0, 1, -8.526512829121202e-14, 0)"/><path class="st9" d="M773,563.9l34.1-53.9v53.9C807.1,563.9,772.3,563.3,773,563.9z" style="fill: rgb(34, 35, 34);" transform="matrix(1, 0, 0, 1, -8.526512829121202e-14, 0)"/><path d="M 685.799988 371.399994 H 730.899986 V 419.799995 H 685.799988 V 371.399994 Z" class="st7" style="fill: rgb(244, 244, 244);" transform="matrix(1, 0, 0, 1, -8.526512829121202e-14, 0)"/><path d="M 691.299988 376.899994 H 725.399986 V 414.399994 H 691.299988 V 376.899994 Z" class="st8" style="fill: rgb(66, 66, 66);" transform="matrix(1, 0, 0, 1, -8.526512829121202e-14, 0)"/><path class="st9" d="M691.3,414.4l34.1-37.5v37.5C725.4,414.4,690.6,413.8,691.3,414.4z" style="fill: rgb(34, 35, 34);" transform="matrix(1, 0, 0, 1, -8.526512829121202e-14, 0)"/><path d="M 806.5 357.70001220703125 L 710 315.8999938964844 L 613.5 357.70001220703125 L 576.7999877929688 458.5 L 565.7000122070312 458.5 L 565.7000122070312 472.20001220703125 L 583.7000122070312 472.20001220703125 L 583.2000122070312 472.3999938964844 L 583.2000122070312 482.3999938964844 L 590.2000122070312 482.3999938964844 L 632.2000122070312 372.8999938964844 L 710 340.6000061035156 L 787.7000122070312 372.8999938964844 L 829.7999877929688 482.3999938964844 L 836.9000244140625 482.3999938964844 L 836.9000244140625 472.3999938964844 L 836.4000244140625 472.20001220703125 L 854.4000244140625 472.20001220703125 L 854.4000244140625 458.5 L 843.2999877929688 458.5 Z" class="st6" style="fill: rgb(158, 29, 29);" transform="matrix(1, 0, 0, 1, -5.684341886080802e-14, 0)"/><path d="M 854.4000244140625 458.5 L 843.2999877929688 458.5 L 806.5 357.70001220703125 L 710 315.8999938964844 L 613.5 357.70001220703125 L 576.7999877929688 458.5 L 565.7000122070312 458.5 L 565.7000122070312 472.20001220703125 L 583.0999755859375 472.20001220703125 L 624.2999877929688 365.1000061035156 L 710 329.5 L 795.7000122070312 365.1000061035156 L 836.7999877929688 472.20001220703125 L 854.4000244140625 472.20001220703125 Z" class="st7" style="fill: rgb(244, 244, 244);" transform="matrix(1, 0, 0, 1, -5.684341886080802e-14, 0)"/><g transform="matrix(1, 0, 0, 1, -5.684341886080802e-14, 0)">
			<g>
				<path d="M 925.7999877929688 307.5 L 913.4000244140625 307.5 L 907.7000122070312 257.70001220703125 L 930.7999877929688 257.70001220703125 Z" class="st9" style="fill: rgb(34, 35, 34);"/>
				<path d="M 917.200012 304.299988 H 921.300012 V 321.499989 H 917.200012 V 304.299988 Z" class="st9" style="fill: rgb(34, 35, 34);"/>
			</g>
			<g>
				<path d="M 912.7999877929688 352.5 L 925.0999755859375 352.5 L 930.7999877929688 402.29998779296875 L 907.7000122070312 402.29998779296875 Z" class="st9" style="fill: rgb(34, 35, 34);"/>
				
					<path d="M 917.200012 338.600006 H 921.300012 V 355.800007 H 917.200012 V 338.600006 Z" transform="matrix(-1 -1.224647e-16 1.224647e-16 -1 1838.5295 694.3394)" class="st9" style="fill: rgb(34, 35, 34);"/>
			</g>
		</g><g transform="matrix(1, 0, 0, 1, -8.526512829121202e-14, 0)">
				<path d="M 908 309.5 L 899.2000122070312 318.20001220703125 L 860 287 L 876.2999877929688 270.70001220703125 Z" class="st9" style="fill: rgb(34, 35, 34);"/>
				
					<path d="M 905.099976 309.299988 H 909.199975 V 326.499989 H 905.099976 V 309.299988 Z" transform="matrix(0.7071 -0.7071 0.7071 0.7071 40.926 734.5364)" class="st9" style="fill: rgb(34, 35, 34);"/>
			</g><path d="M 930.5999755859375 350.5 L 939.2999877929688 341.79998779296875 L 978.5 373 L 962.2000122070312 389.29998779296875 Z" class="st9" style="fill: rgb(34, 35, 34);" transform="matrix(1, 0, 0, 1, -8.526512829121202e-14, 0)"/><path d="M 929.299988 333.600006 H 933.399988 V 350.800007 H 929.299988 V 333.600006 Z" transform="matrix(-0.7071000337600708, 0.7071000337600708, -0.7071000337600708, -0.7071000337600708, 1831.934814453125, -74.5282974243164)" class="st9" style="fill: rgb(34, 35, 34);"/><g transform="matrix(1, 0, 0, 1, -8.526512829121202e-14, 0)">
				<path d="M 896.7999877929688 323.5 L 896.7999877929688 335.79998779296875 L 847 341.5 L 847 318.5 Z" class="st9" style="fill: rgb(34, 35, 34);"/>
				
					<path d="M 900 321.399994 H 904.1 V 338.599995 H 900 V 321.399994 Z" transform="matrix(4.509821e-11 -1 1 4.509821e-11 572.0951 1232.1031)" class="st9" style="fill: rgb(34, 35, 34);"/>
			</g><path d="M 941.7000122070312 336.5 L 941.7000122070312 324.20001220703125 L 991.5 318.5 L 991.5 341.5 Z" class="st9" style="fill: rgb(34, 35, 34);" transform="matrix(1, 0, 0, 1, -8.526512829121202e-14, 0)"/><path d="M 934.400024 321.399994 H 938.500024 V 338.599995 H 934.400024 V 321.399994 Z" transform="matrix(-4.465601846637135e-11, 1, -1, -4.465601846637135e-11, 1266.4344482421873, -606.4263916015625)" class="st9" style="fill: rgb(34, 35, 34);"/><g transform="matrix(1, 0, 0, 1, -8.526512829121202e-14, 0)">
				<path d="M 898.7999877929688 341.29998779296875 L 907.5 350 L 876.2999877929688 389.29998779296875 L 860 373 Z" class="st9" style="fill: rgb(34, 35, 34);"/>
				
					<path d="M 905.099976 333.600006 H 909.199975 V 350.800007 H 905.099976 V 333.600006 Z" transform="matrix(-0.7071 -0.7071 0.7071 -0.7071 1306.6315 1225.5084)" class="st9" style="fill: rgb(34, 35, 34);"/>
			</g><path d="M 939.7999877929688 318.70001220703125 L 931 310 L 962.2000122070312 270.70001220703125 L 978.5 287 Z" class="st9" style="fill: rgb(34, 35, 34);" transform="matrix(1, 0, 0, 1, -8.526512829121202e-14, 0)"/><path d="M 929.299988 309.299988 H 933.399988 V 326.499989 H 929.299988 V 309.299988 Z" transform="matrix(0.7071000337600708, 0.7071000337600708, -0.7071000337600708, 0.7071000337600708, 497.5668029785155, -565.5004272460938)" class="st9" style="fill: rgb(34, 35, 34);"/><path d="M 933.000025 330 A 12.6 12.6 0 0 1 920.400024 342.6 A 12.6 12.6 0 0 1 907.800024 330 A 12.6 12.6 0 0 1 920.400024 317.4 A 12.6 12.6 0 0 1 933.000025 330 Z" class="st9" style="fill: rgb(34, 35, 34);" transform="matrix(1, 0, 0, 1, -8.526512829121202e-14, 0)"/><path d="M 927.200025 330 A 6.8 6.8 0 0 1 920.400024 336.8 A 6.8 6.8 0 0 1 913.600024 330 A 6.8 6.8 0 0 1 920.400024 323.2 A 6.8 6.8 0 0 1 927.200025 330 Z" class="st7" style="fill: rgb(244, 244, 244);" transform="matrix(1, 0, 0, 1, -8.526512829121202e-14, 0)"/><path d="M 868.7000122070312 612.5999755859375 L 920.2999877929688 336.8999938964844 L 915.4000244140625 336.8999938964844 L 863.7999877929688 612.5999755859375 Z" class="st9" style="fill: rgb(34, 35, 34);" transform="matrix(1, 0, 0, 1, -5.684341886080802e-14, 0)"/><path d="M 974.2999877929688 612.5999755859375 L 922.7000122070312 336.8999938964844 L 917.7999877929688 336.8999938964844 L 969.4000244140625 612.5999755859375 Z" class="st9" style="fill: rgb(34, 35, 34);" transform="matrix(1, 0, 0, 1, -5.684341886080802e-14, 0)"/><path d="M 897.700012 432.299988 H 939.800011 V 436.499988 H 897.700012 V 432.299988 Z" class="st9" style="fill: rgb(34, 35, 34);" transform="matrix(1, 0, 0, 1, -5.684341886080802e-14, 0)"/><path d="M 888.799988 488.100006 H 949.699989 V 494.300006 H 888.799988 V 488.100006 Z" class="st9" style="fill: rgb(34, 35, 34);" transform="matrix(1, 0, 0, 1, -5.684341886080802e-14, 0)"/><path d="M 916.200012 390.899994 H 920.500012 V 612.599991 H 916.200012 V 390.899994 Z" class="st9" style="fill: rgb(34, 35, 34);" transform="matrix(1, 0, 0, 1, -5.684341886080802e-14, 0)"/><path class="st10" d="M526.2,641.7H319c-10.6,0-19.3,8.7-19.3,19.3v0c0,10.6,8.7,19.3,19.3,19.3h207.2c10.6,0,19.3-8.7,19.3-19.3v0&#10;&#9;&#9;C545.6,650.4,536.8,641.7,526.2,641.7z" style="fill: rgb(60, 188, 60);" transform="matrix(1, 0, 0, 1, -2.842170943040401e-14, 0)"/><path d="M 445.20001220703125 619.5999755859375 L 446.79998779296875 660.9000244140625 L 457.29998779296875 660.9000244140625 L 465.70001220703125 621.5 L 459 615.7999877929688 Z" class="st11" style="fill: rgb(226, 226, 225);" transform="matrix(1, 0, 0, 1, -5.684341886080802e-14, 0)"/><path d="M 373.5 619.7000122070312 L 382.6000061035156 660.9000244140625 L 393.1000061035156 660.7999877929688 L 394.3999938964844 621.4000244140625 L 386.6000061035156 615.7999877929688 Z" class="st11" style="fill: rgb(226, 226, 225);" transform="matrix(1, 0, 0, 1, -8.526512829121202e-14, 0)"/><path d="M 380.8999938964844 653.2000122070312 L 382.6000061035156 660.9000244140625 L 393.1000061035156 660.7999877929688 L 393.3999938964844 653.0999755859375 Z" class="st12" style="fill: rgb(88, 88, 90);" transform="matrix(1, 0, 0, 1, -8.526512829121202e-14, 0)"/><path class="st13" d="M408.7,629.5c3.2-3.6,5.2-8.4,5.2-13.6c0-11.3-9.1-20.4-20.4-20.4s-20.4,9.1-20.4,20.4&#10;&#9;&#9;&#9;c0,5.6,2.3,10.8,6,14.4l-2,2.9c-0.6,0.9-0.4,2,0.5,2.6c0.9,0.6,2,0.4,2.6-0.5l1.8-2.6c0.8,0.5,1.6,1,2.5,1.4l-0.9,2.7&#10;&#9;&#9;&#9;c-0.3,1,0.2,2.1,1.2,2.4c1,0.3,2.1-0.2,2.4-1.2l0.9-2.5c1.3,0.4,2.7,0.6,4.2,0.7v2.4c0,1,0.9,1.9,1.9,1.9c1,0,1.9-0.9,1.9-1.9&#10;&#9;&#9;&#9;v-2.5c1.2-0.2,2.4-0.4,3.6-0.8l0.7,1.9c0.4,1,1.5,1.5,2.4,1.1c1-0.4,1.5-1.5,1.1-2.4l-0.8-2.1c1-0.5,1.9-1.1,2.8-1.8l1.4,1.4&#10;&#9;&#9;&#9;c0.7,0.7,1.9,0.7,2.7,0c0.7-0.7,0.7-1.9,0-2.7L408.7,629.5z" style="fill: rgb(252, 172, 205);" transform="matrix(1, 0, 0, 1, -5.684341886080802e-14, 0)"/><path class="st14" d="M487.6,592l-5.4,28.2l-5.8,30.1l-2.1,10.9h-11.2c0.1-7.9,0-25.8-1.9-32.5c-0.9-3-2.9-4.3-5.1-4.8&#10;&#9;&#9;&#9;c-4.2-0.9-9.2,1.3-9.2,1.3c-24.7,6.7-49.9-1.8-60.8-6.3c-3.5-1.5-5.5-2.5-5.5-2.5c-3.1,2.8-4.9,9.7-5.9,17.4&#10;&#9;&#9;&#9;c-0.6,4.1-0.9,8.4-1.1,12.5c-0.1,2.3-0.2,4.5-0.2,6.6c0,0.1,0,0.2,0,0.4c0,0.1,0,0.2,0,0.4c0,0.1,0,0.1,0,0.2c0,1.5,0,2.8,0,4&#10;&#9;&#9;&#9;c0,0.7,0,1.3,0,1.9c0,0.3,0,0.5,0,0.8c0,0.3,0,0.6,0,0.8h-14.3c-0.1-1.6-0.3-4.6-0.7-8.4c-0.6-7.7-1.5-19.1-1.7-31.1&#10;&#9;&#9;&#9;c-0.2-12.2,0.4-25,2.7-35.2c1.6-7,4-12.9,7.5-16.5c0.9-0.9,1.9-1.7,3-2.4c16.1-9.3,34.2-2.9,50.9-1.9c12.8,0.8,24.9,1.3,34.6,1.7&#10;&#9;&#9;&#9;c12.6,0.5,21,0.6,21,0.6L487.6,592z" style="fill: rgb(255, 249, 245);" transform="matrix(1, 0, 0, 1, -5.684341886080802e-14, 0)"/><path class="st11" d="M487.6,592l-11.2-24c0,0-5.2-0.1-13.7-0.4c-0.1,0.9-0.1,1.7,0,2.5c0.3,3.2,1.2,6,2.1,7.9&#10;&#9;&#9;&#9;c3,6.1,3.8,20.3,4,25.1c-0.2,0.8-0.3,1.6-0.3,2.4c0,6.6,6.2,9.9,14.4,10.7L487.6,592z" style="fill: rgb(226, 226, 225);" transform="matrix(1, 0, 0, 1, -5.684341886080802e-14, 0)"/><path d="M 446.5 653.2000122070312 L 446.79998779296875 660.9000244140625 L 457.29998779296875 660.9000244140625 L 459 653.2000122070312 Z" class="st12" style="fill: rgb(88, 88, 90);" transform="matrix(1, 0, 0, 1, -5.684341886080802e-14, 0)"/><path class="st12" d="M373.4,652.8c0,0.1,0,0.2,0,0.4c0,0.1,0,0.2,0,0.4c0,0.1,0,0.1,0,0.2c0,2.3,0,4.3,0,5.9c0,0.3,0,0.5,0,0.8&#10;&#9;&#9;&#9;c0,0.3,0,0.6,0,0.8h-14.3c-0.1-1.6-0.3-4.6-0.7-8.4H373.4z" style="fill: rgb(88, 88, 90);" transform="matrix(1, 0, 0, 1, -5.684341886080802e-14, 0)"/><path class="st12" d="M463.1,652.8c0,3.3,0,6.2,0,8.4h11.2l1.6-8.4H463.1z" style="fill: rgb(88, 88, 90);" transform="matrix(1, 0, 0, 1, -5.684341886080802e-14, 0)"/><path id="XMLID_2_" class="st12" d="M496.4,559c0,0,14.2-8.7,14.5-12.2s8.5,8,2.7,14.6c-5.8,6.6-16.3,2.5-16.3,2.5L496.4,559z" style="fill: rgb(88, 88, 90);" transform="matrix(1, 0, 0, 1, -5.684341886080802e-14, 0)"/><path class="st13" d="M494.7,557.2c0,0,5.9-5.2,4.5-11.6c0,0,7.1,6.9,2.9,16.3L494.7,557.2z" style="fill: rgb(252, 172, 205);" transform="matrix(1, 0, 0, 1, -5.684341886080802e-14, 0)"/><path id="XMLID_1_" class="st12" d="M478.4,559.2c0,0-14.4-8.4-14.7-12c-0.4-3.5-8.3,8.1-2.4,14.7c5.9,6.5,16.3,2.2,16.3,2.2&#10;&#9;&#9;&#9;L478.4,559.2z" style="fill: rgb(88, 88, 90);" transform="matrix(1, 0, 0, 1, -5.684341886080802e-14, 0)"/><path class="st13" d="M481.9,557.2c0,0-5.9-5.2-4.5-11.6c0,0-7.1,6.9-2.9,16.3L481.9,557.2z" style="fill: rgb(252, 172, 205);" transform="matrix(1, 0, 0, 1, -5.684341886080802e-14, 0)"/><path class="st14" d="M487.2,553.8L487.2,553.8c-11.5,0-20.7,10.6-19.9,18.6c0.3,2.6,1,4.9,1.7,6.4c2.9,6,3.3,21.7,3.3,21.7&#10;&#9;&#9;&#9;l14.9-3.3l14.8,3.4c0,0,0.5-15.9,3.4-21.8c0.7-1.5,1.5-3.8,1.7-6.4C507.8,564.3,498.7,553.8,487.2,553.8z" style="fill: rgb(255, 249, 245);" transform="matrix(1, 0, 0, 1, -5.684341886080802e-14, 0)"/><path class="st13" d="M502.3,601.1c0-6.3-6.8-12.7-15.1-12.7s-15.1,6.4-15.1,12.7s6.8,8.9,15.1,8.9S502.3,607.3,502.3,601.1z" style="fill: rgb(252, 172, 205);" transform="matrix(1, 0, 0, 1, -5.684341886080802e-14, 0)"/><path d="M 483.000012 599.5 A 2.3 1.3 0 0 1 480.700012 600.8 A 2.3 1.3 0 0 1 478.400012 599.5 A 2.3 1.3 0 0 1 480.700012 598.2 A 2.3 1.3 0 0 1 483.000012 599.5 Z" transform="matrix(0.7071000337600708, -0.7071000337600708, 0.7071000337600708, 0.7071000337600708, -283.12670898437506, 515.4650268554688)" class="st15" style="fill: rgb(229, 137, 179);"/><path d="M 494.8 599.5 A 1.3 2.3 0 0 1 493.5 601.8 A 1.3 2.3 0 0 1 492.2 599.5 A 1.3 2.3 0 0 1 493.5 597.2 A 1.3 2.3 0 0 1 494.8 599.5 Z" transform="matrix(0.7071000337600708, -0.7071000337600708, 0.7071000337600708, 0.7071000337600708, -279.37060546875006, 524.5330200195312)" class="st15" style="fill: rgb(229, 137, 179);"/><path class="st12" d="M483.7,554.1c-9.8,1.8-17.1,11.1-16.4,18.3c0.3,2.6,1,4.9,1.7,6.4c0.9,1.9,1.6,4.9,2.1,8&#10;&#9;&#9;&#9;C479.1,583.9,490.3,575.9,483.7,554.1z" style="fill: rgb(88, 88, 90);" transform="matrix(1, 0, 0, 1, -5.684341886080802e-14, 0)"/><path d="M 479.300012 575.400024 A 2.1 2.1 0 0 1 477.200012 577.500024 A 2.1 2.1 0 0 1 475.100012 575.400024 A 2.1 2.1 0 0 1 477.200012 573.300025 A 2.1 2.1 0 0 1 479.300012 575.400024 Z" class="st14" style="fill: rgb(255, 249, 245);" transform="matrix(1, 0, 0, 1, -5.684341886080802e-14, 0)"/><path d="M 498.899988 575.400024 A 2.1 2.1 0 0 1 496.799988 577.500024 A 2.1 2.1 0 0 1 494.699988 575.400024 A 2.1 2.1 0 0 1 496.799988 573.300025 A 2.1 2.1 0 0 1 498.899988 575.400024 Z" class="st12" style="fill: rgb(88, 88, 90);" transform="matrix(1, 0, 0, 1, -5.684341886080802e-14, 0)"/><path class="st12" d="M411.2,597.9c-20-1.4,0.6-21.5-29.2-23.2c-8.5-0.5-12.9-2.4-15.1-4.7c0.9-0.9,1.9-1.7,3-2.4&#10;&#9;&#9;&#9;c16.1-9.3,34.2-2.9,50.9-1.9c12.8,0.8,24.9,1.3,34.6,1.7c0.9,2.6,2.3,5.6,4.2,9.4C468.1,593.2,431.1,599.3,411.2,597.9z" style="fill: rgb(88, 88, 90);" transform="matrix(1, 0, 0, 1, -5.684341886080802e-14, 0)"/><path class="st12" d="M376,592c0.5,12.7-10,9-4.2,19.6c4,7.4-6.6,19.3-15,10c-0.2-12.2,0.4-25,2.7-35.2&#10;&#9;&#9;&#9;C368,584.3,375.6,582.7,376,592z" style="fill: rgb(88, 88, 90);" transform="matrix(1, 0, 0, 1, -5.684341886080802e-14, 0)"/><path class="st12" d="M374.8,633.7c-0.6,4.1-0.9,8.4-1.1,12.5c-1.7-1.7-3.6-3.7-5.4-5.7C364.1,636.2,371.5,634.3,374.8,633.7z" style="fill: rgb(88, 88, 90);" transform="matrix(1, 0, 0, 1, -5.684341886080802e-14, 0)"/><path class="st12" d="M456.1,623.9c-4.2-0.9-9.2,1.3-9.2,1.3c-24.7,6.7-49.9-1.8-60.8-6.3c-0.6-4.8,0.6-11.8,15-7.7&#10;&#9;&#9;&#9;c21,6.1,38.6-10.3,39.5-2.7C441.8,619.2,458.7,610.4,456.1,623.9z" style="fill: rgb(88, 88, 90);" transform="matrix(1, 0, 0, 1, -5.684341886080802e-14, 0)"/><path class="st12" d="M482.2,620.2l-5.8,30.1c-13.5-5.8-0.2-8.3-3.1-19C471.3,623.5,477.7,621,482.2,620.2z" style="fill: rgb(88, 88, 90);" transform="matrix(1, 0, 0, 1, -5.684341886080802e-14, 0)"/><path class="st10" d="M1140.3,790.5c-3.7,5.5-10,9.2-17.1,9.2h-246c-5.6,0-10.8-2.3-14.5-6c-3.7-3.7-6-8.8-6-14.5&#10;&#9;&#9;c0-11.3,9.2-20.5,20.5-20.5h167.2c-1.1,2.5-1.8,5.2-2,8c0,0.1,0,0.3,0,0.4c-0.6,12.7,9.4,23.3,22.1,23.3L1140.3,790.5z" style="fill: rgb(60, 188, 60);" transform="matrix(1, 0, 0, 1, -2.842170943040401e-14, 0)"/><path class="st10" d="M786.7,724.9h-71.9c-5.7,0-10.3,4.7-10.3,10.3l0,0c0,5.7,4.7,10.3,10.3,10.3h71.9c5.7,0,10.3-4.7,10.3-10.3&#10;&#9;&#9;l0,0C797,729.5,792.4,724.9,786.7,724.9z" style="fill: rgb(60, 188, 60);" transform="matrix(1, 0, 0, 1, -2.842170943040401e-14, 0)"/><path class="st10" d="M470,738.4h-13.3c-5.7,0-10.3,4.7-10.3,10.3l0,0c0,5.7,4.7,10.3,10.3,10.3H470c5.7,0,10.3-4.7,10.3-10.3l0,0&#10;&#9;&#9;C480.4,743,475.7,738.4,470,738.4z" style="fill: rgb(60, 188, 60);" transform="matrix(1, 0, 0, 1, -2.842170943040401e-14, 0)"/><path class="st16" d="M376.2,313c0.2-1,0.3-2,0.3-3c0-9.8-9.8-17.7-21.9-17.8c-3.9,0-7.5,0.8-10.6,2.2c-4.2-5.6-13.9-9.6-25.3-9.8&#10;&#9;&#9;c-1.8-9.5-16.2-16.9-33.6-17c-14.4-0.1-26.8,4.9-31.7,12c-2.4-0.5-4.9-0.8-7.5-0.8c-13.6-0.1-24.7,7.1-24.7,16c0,0.1,0,0.2,0,0.3&#10;&#9;&#9;c-0.1,0-0.1,0-0.2,0c-14.2-0.1-25.8,6.5-25.8,14.7c0,0.8,0.1,1.6,0.3,2.4l-8.3,0c-4.6,0-8.4,3.7-8.4,8.3s3.7,8.4,8.3,8.4l188.8,0.8&#10;&#9;&#9;c4.6,0,8.4-3.7,8.4-8.3v0C384.1,317,380.6,313.3,376.2,313z" style="fill: rgb(255, 255, 255);" transform="matrix(1, 0, 0, 1, -2.842170943040401e-14, 0)"/><path class="st16" d="M1131.1,223.9c0.2-1,0.3-2,0.3-3c0-9.8-9.8-17.7-21.9-17.8c-3.9,0-7.5,0.8-10.6,2.2&#10;&#9;&#9;c-4.2-5.6-13.9-9.6-25.3-9.8c-1.8-9.5-16.2-16.9-33.6-17c-14.4-0.1-26.8,4.9-31.7,12c-2.4-0.5-4.9-0.8-7.5-0.8&#10;&#9;&#9;c-13.6-0.1-24.7,7.1-24.7,16c0,0.1,0,0.2,0,0.3c-0.1,0-0.1,0-0.2,0c-14.2-0.1-25.8,6.5-25.8,14.7c0,0.8,0.1,1.6,0.3,2.4l-8.3,0&#10;&#9;&#9;c-4.6,0-8.4,3.7-8.4,8.3c0,4.6,3.7,8.4,8.3,8.4l188.8,0.8c4.6,0,8.4-3.7,8.4-8.3v0C1138.9,227.8,1135.4,224.2,1131.1,223.9z" style="fill: rgb(255, 255, 255);" transform="matrix(1, 0, 0, 1, -2.842170943040401e-14, 0)"/><path class="st16" d="M771,171.2c0.2-0.9,0.3-1.9,0.3-2.8c0-9.2-9.2-16.6-20.6-16.7c-3.6,0-7,0.7-10,2c-3.9-5.3-13.1-9-23.8-9.2&#10;&#9;&#9;c-1.7-8.9-15.2-15.9-31.6-16c-13.6-0.1-25.2,4.6-29.8,11.3c-2.2-0.5-4.6-0.7-7.1-0.8c-12.8-0.1-23.2,6.7-23.2,15.1&#10;&#9;&#9;c0,0.1,0,0.2,0,0.3c-0.1,0-0.1,0-0.2,0c-13.4-0.1-24.2,6.1-24.3,13.8c0,0.8,0.1,1.5,0.3,2.3l-7.8,0c-4.3,0-7.9,3.5-7.9,7.8&#10;&#9;&#9;c0,4.3,3.5,7.9,7.8,7.9l177.4,0.7c4.3,0,7.9-3.5,7.9-7.8v0C778.4,174.9,775.1,171.5,771,171.2z" style="fill: rgb(255, 255, 255);" transform="matrix(1, 0, 0, 1, -2.842170943040401e-14, 0)"/><path d="M 542.900013 240.699997 A 56.200001 56.200001 0 0 1 486.700012 296.899998 A 56.200001 56.200001 0 0 1 430.500011 240.699997 A 56.200001 56.200001 0 0 1 486.700012 184.499996 A 56.200001 56.200001 0 0 1 542.900013 240.699997 Z" class="st17" style="fill: rgb(255, 219, 31);" transform="matrix(1, 0, 0, 1, -2.842170943040401e-14, 0)"/><path class="st1" d="M1057.7,381.7l-18,30C1039.7,411.7,1022.7,376.7,1057.7,381.7z" style="opacity: 0.54; fill: rgb(43, 153, 191);" transform="matrix(1, 0, 0, 1, -2.842170943040401e-14, 0)"/><path class="st2" d="M1041.7,289.7l-22,18C1019.7,307.7,1006.7,285.7,1041.7,289.7z" style="fill: rgb(43, 153, 191);" transform="matrix(1, 0, 0, 1, -2.842170943040401e-14, 0)"/><path class="st2" d="M720.7,291.7l-30,17C690.7,308.7,686.7,282.7,720.7,291.7z" style="fill: rgb(43, 153, 191);" transform="matrix(1, 0, 0, 1, -2.842170943040401e-14, 0)"/><path class="st2" d="M390.7,405.7l40-12C430.7,393.7,410.7,365.7,390.7,405.7z" style="fill: rgb(43, 153, 191);" transform="matrix(1, 0, 0, 1, -2.842170943040401e-14, 0)"/><path class="st6" d="M304.7,627.2h-13.4c-1.5,0-2.7-1.2-2.7-2.7V528c0-1.5,1.2-2.7,2.7-2.7h13.4c1.5,0,2.7,1.2,2.7,2.7v96.5&#10;&#9;&#9;&#9;C307.4,626,306.2,627.2,304.7,627.2z" style="fill: rgb(158, 29, 29);" transform="matrix(1, 0, 0, 1, -5.684341886080802e-14, 0)"/><path d="M 365.699997 473.700012 A 67.699997 67.699997 0 0 1 298 541.400009 A 67.699997 67.699997 0 0 1 230.300003 473.700012 A 67.699997 67.699997 0 0 1 298 406.000015 A 67.699997 67.699997 0 0 1 365.699997 473.700012 Z" class="st3" style="fill: rgb(93, 216, 93);" transform="matrix(1, 0, 0, 1, -8.526512829121202e-14, 0)"/><path class="st10" d="M298,406c-7.8,0-15.2,1.3-22.2,3.7c22.4,6.6,38.8,27.3,38.8,51.9c0,29.9-24.2,54.1-54.1,54.1&#10;&#9;&#9;&#9;&#9;c-6.2,0-12.2-1.1-17.8-3c12.3,17.3,32.5,28.6,55.3,28.6c37.4,0,67.7-30.3,67.7-67.7S335.4,406,298,406z" style="fill: rgb(60, 188, 60);" transform="matrix(1, 0, 0, 1, -8.526512829121202e-14, 0)"/><path class="st6" d="M1144.7,627.2h-13.4c-1.5,0-2.7-1.2-2.7-2.7V528c0-1.5,1.2-2.7,2.7-2.7h13.4c1.5,0,2.7,1.2,2.7,2.7v96.5&#10;&#9;&#9;&#9;C1147.4,626,1146.2,627.2,1144.7,627.2z" style="fill: rgb(158, 29, 29);" transform="matrix(1, 0, 0, 1, -5.684341886080802e-14, 0)"/><path d="M 1205.699997 473.700012 A 67.699997 67.699997 0 0 1 1138 541.400009 A 67.699997 67.699997 0 0 1 1070.300003 473.700012 A 67.699997 67.699997 0 0 1 1138 406.000015 A 67.699997 67.699997 0 0 1 1205.699997 473.700012 Z" class="st3" style="fill: rgb(93, 216, 93);" transform="matrix(1, 0, 0, 1, -8.526512829121202e-14, 0)"/><path class="st10" d="M1138,406c-7.8,0-15.2,1.3-22.2,3.7c22.4,6.6,38.8,27.3,38.8,51.9c0,29.9-24.2,54.1-54.1,54.1&#10;&#9;&#9;&#9;&#9;c-6.2,0-12.2-1.1-17.8-3c12.3,17.3,32.5,28.6,55.3,28.6c37.4,0,67.7-30.3,67.7-67.7S1175.4,406,1138,406z" style="fill: rgb(60, 188, 60);" transform="matrix(1, 0, 0, 1, -8.526512829121202e-14, 0)"/><path class="st6" d="M227.8,627.2h-11.7c-1.3,0-2.3-1-2.3-2.3V541c0-1.3,1-2.3,2.3-2.3h11.7c1.3,0,2.3,1,2.3,2.3v83.9&#10;&#9;&#9;&#9;C230.2,626.2,229.1,627.2,227.8,627.2z" style="fill: rgb(158, 29, 29);" transform="matrix(1, 0, 0, 1, -5.684341886080802e-14, 0)"/><path d="M 280.900002 493.799988 A 58.900002 58.900002 0 0 1 222 552.699989 A 58.900002 58.900002 0 0 1 163.099998 493.799988 A 58.900002 58.900002 0 0 1 222 434.899986 A 58.900002 58.900002 0 0 1 280.900002 493.799988 Z" class="st3" style="fill: rgb(93, 216, 93);" transform="matrix(1, 0, 0, 1, -8.526512829121202e-14, 0)"/><path class="st10" d="M222,434.9c-6.8,0-13.3,1.1-19.3,3.2c19.5,5.8,33.7,23.8,33.7,45.1c0,26-21.1,47.1-47.1,47.1&#10;&#9;&#9;&#9;&#9;c-5.4,0-10.6-0.9-15.4-2.6c10.7,15.1,28.2,24.9,48.1,24.9c32.5,0,58.9-26.4,58.9-58.9S254.5,434.9,222,434.9z" style="fill: rgb(60, 188, 60);" transform="matrix(1, 0, 0, 1, -8.526512829121202e-14, 0)"/><path class="st10" d="M951.3,689.8c-2.6-25.5-40.5-45.8-86.9-45.8c-46.4,0-84.3,20.2-86.9,45.8H951.3z" style="fill: rgb(60, 188, 60);" transform="matrix(1, 0, 0, 1, -2.842170943040401e-14, 0)"/><path class="st10" d="M984.3,877.3c-1.9-18.7-29.7-33.5-63.6-33.5c-34,0-61.7,14.8-63.6,33.5H984.3z" style="fill: rgb(60, 188, 60);" transform="matrix(1, 0, 0, 1, -2.842170943040401e-14, 0)"/><path class="st10" d="M301.8,727.3c-1.6-15.8-25.1-28.4-53.9-28.4s-52.3,12.6-53.9,28.4H301.8z" style="fill: rgb(60, 188, 60);" transform="matrix(1, 0, 0, 1, -2.842170943040401e-14, 0)"/><path d="M 694.700012 696.700012 A 8 8 0 0 1 686.700012 704.700012 A 8 8 0 0 1 678.700012 696.700012 A 8 8 0 0 1 686.700012 688.700012 A 8 8 0 0 1 694.700012 696.700012 Z" class="st10" style="fill: rgb(60, 188, 60);" transform="matrix(1, 0, 0, 1, -2.842170943040401e-14, 0)"/><path d="M 573.799988 704.799988 A 8 8 0 0 1 565.799988 712.799988 A 8 8 0 0 1 557.799988 704.799988 A 8 8 0 0 1 565.799988 696.799988 A 8 8 0 0 1 573.799988 704.799988 Z" class="st10" style="fill: rgb(60, 188, 60);" transform="matrix(1, 0, 0, 1, -2.842170943040401e-14, 0)"/><path d="M 1087.699951 845.700012 A 9 9 0 0 1 1078.699951 854.700012 A 9 9 0 0 1 1069.699951 845.700012 A 9 9 0 0 1 1078.699951 836.700012 A 9 9 0 0 1 1087.699951 845.700012 Z" class="st10" style="fill: rgb(60, 188, 60);" transform="matrix(1, 0, 0, 1, -2.842170943040401e-14, 0)"/><path d="M 1197.2 681.5 A 11.2 11.2 0 0 1 1186 692.7 A 11.2 11.2 0 0 1 1174.8 681.5 A 11.2 11.2 0 0 1 1186 670.3 A 11.2 11.2 0 0 1 1197.2 681.5 Z" class="st10" style="fill: rgb(60, 188, 60);" transform="matrix(1, 0, 0, 1, -2.842170943040401e-14, 0)"/><path d="M 207.300003 662.799988 A 4.5 4.5 0 0 1 202.800003 667.299988 A 4.5 4.5 0 0 1 198.300003 662.799988 A 4.5 4.5 0 0 1 202.800003 658.299988 A 4.5 4.5 0 0 1 207.300003 662.799988 Z" class="st10" style="fill: rgb(60, 188, 60);" transform="matrix(1, 0, 0, 1, -2.842170943040401e-14, 0)"/><path d="M 207.300006 873.5 A 6.7 6.7 0 0 1 200.600006 880.2 A 6.7 6.7 0 0 1 193.900006 873.5 A 6.7 6.7 0 0 1 200.600006 866.8 A 6.7 6.7 0 0 1 207.300006 873.5 Z" class="st10" style="fill: rgb(60, 188, 60);" transform="matrix(1, 0, 0, 1, -2.842170943040401e-14, 0)"/><path d="M 820.799975 822.5 A 11.2 11.2 0 0 1 809.599976 833.7 A 11.2 11.2 0 0 1 798.399976 822.5 A 11.2 11.2 0 0 1 809.599976 811.3 A 11.2 11.2 0 0 1 820.799975 822.5 Z" class="st10" style="fill: rgb(60, 188, 60);" transform="matrix(1, 0, 0, 1, -2.842170943040401e-14, 0)"/><path class="st4" d="M1058,722.4l53.5-45.8c0,0-14.7-97.1-17.4-99.9c-2.7-2.7-76.1,0-76.1,0l-32.1,76.1v69.6H1058z" style="fill: rgb(229, 57, 57);" transform="matrix(1, 0, 0, 1, -5.684341886080802e-14, 0)"/><path class="st6" d="M1096.8,587.7c-1.2-6.3-2.2-10.5-2.8-11c-2.7-2.7-76.1,0-76.1,0l-4.6,11H1096.8z" style="fill: rgb(158, 29, 29);" transform="matrix(1, 0, 0, 1, -5.684341886080802e-14, 0)"/><path class="st4" d="M1098.6,567.1h-86.4c-3.2,0-5.9,2.6-5.9,5.9l0,0c0,3.2,2.6,5.9,5.9,5.9h86.4c3.2,0,5.9-2.6,5.9-5.9l0,0&#10;&#9;&#9;&#9;C1104.4,569.8,1101.8,567.1,1098.6,567.1z" style="fill: rgb(229, 57, 57);" transform="matrix(1, 0, 0, 1, -5.684341886080802e-14, 0)"/><path d="M 1084.800048828125 594.5999755859375 L 1020.7000122070312 594.5999755859375 L 994.4000244140625 653.5 L 994.4000244140625 707.0999755859375 L 1039.0999755859375 707.0999755859375 L 1098.9000244140625 677.5999755859375 Z" class="st18" style="fill: rgb(140, 221, 249);" transform="matrix(1, 0, 0, 1, -5.684341886080802e-14, 0)"/><path d="M 937.799988 628 H 965.299988 V 661.799999 H 937.799988 V 628 Z" class="st6" style="fill: rgb(158, 29, 29);" transform="matrix(1, 0, 0, 1, -5.684341886080802e-14, 0)"/><path d="M 944.299988 589.099976 H 959.899988 V 627.999977 H 944.299988 V 589.099976 Z" class="st6" style="fill: rgb(158, 29, 29);" transform="matrix(1, 0, 0, 1, -5.684341886080802e-14, 0)"/><path d="M 944.299988 622.099976 H 959.899988 V 627.999976 H 944.299988 V 622.099976 Z" class="st19" style="fill: rgb(107, 12, 12);" transform="matrix(1, 0, 0, 1, -5.684341886080802e-14, 0)"/><path class="st6" d="M955.6,595.2h-6.3l0-12.3c0.1-2.4-0.6-4.1-2-5.2c-1-0.8-2-1-2-1l1-6.2c3.4,0.6,9.6,3.9,9.3,12.7V595.2z" style="fill: rgb(158, 29, 29);" transform="matrix(1, 0, 0, 1, -5.684341886080802e-14, 0)"/><path class="st6" d="M953.5,575.1v13.9" style="fill: rgb(158, 29, 29);" transform="matrix(1, 0, 0, 1, -5.684341886080802e-14, 0)"/><path d="M 993.0999755859375 643.9000244140625 L 991.9000244140625 729.7999877929688 L 904.4000244140625 729.7999877929688 L 893.4000244140625 712.4000244140625 L 887.9000244140625 703.5999755859375 L 887.2000122070312 663.7999877929688 L 914 643.9000244140625 Z" class="st4" style="fill: rgb(229, 57, 57);" transform="matrix(1, 0, 0, 1, -5.684341886080802e-14, 0)"/><path d="M 887.7999877929688 699.0999755859375 L 887.9000244140625 703.5999755859375 L 904.4000244140625 729.7999877929688 L 1002.7000122070312 729.7999877929688 L 1020.7000122070312 699.0999755859375 Z" class="st6" style="fill: rgb(158, 29, 29);" transform="matrix(1, 0, 0, 1, -5.684341886080802e-14, 0)"/><path class="st6" d="M984,729.8h-79.6l-11-17.4c8.8-13.8,24.3-23,41.9-23C959.5,689.4,979.7,706.8,984,729.8z" style="fill: rgb(158, 29, 29);" transform="matrix(1, 0, 0, 1, -5.684341886080802e-14, 0)"/><path class="st6" d="M970.4,737.1h76.1l73.3-46.7v-24.9c0-6.5-5.3-11.7-11.7-11.7h-44.2c0,0-40.3,18.8-57.7,53.1h-52.2&#10;&#9;&#9;&#9;L970.4,737.1z" style="fill: rgb(158, 29, 29);" transform="matrix(1, 0, 0, 1, -5.684341886080802e-14, 0)"/><path class="st20" d="M1094.8,653.7h-31c0,0-34.2,16-53.2,45.4h-16.1v-34.6c22.3-12.5,55.6-25.3,98.1-24.7L1094.8,653.7z" style="opacity: 0.72; fill: rgb(86, 193, 241);" transform="matrix(1, 0, 0, 1, -5.684341886080802e-14, 0)"/><g transform="matrix(1, 0, 0, 1, -8.526512829121202e-14, 0)">
				<path d="M 1138.79995 724.900024 A 55.599998 55.599998 0 0 1 1083.199951 780.500023 A 55.599998 55.599998 0 0 1 1027.599953 724.900024 A 55.599998 55.599998 0 0 1 1083.199951 669.300026 A 55.599998 55.599998 0 0 1 1138.79995 724.900024 Z" class="st9" style="fill: rgb(34, 35, 34);"/>
				<path d="M 1108.99995 724.900024 A 25.799999 25.799999 0 0 1 1083.199951 750.700024 A 25.799999 25.799999 0 0 1 1057.399952 724.900024 A 25.799999 25.799999 0 0 1 1083.199951 699.100025 A 25.799999 25.799999 0 0 1 1108.99995 724.900024 Z" class="st16" style="fill: rgb(255, 255, 255);"/>
				<path d="M 1093.899951 724.900024 A 10.7 10.7 0 0 1 1083.199951 735.600024 A 10.7 10.7 0 0 1 1072.499951 724.900024 A 10.7 10.7 0 0 1 1083.199951 714.200025 A 10.7 10.7 0 0 1 1093.899951 724.900024 Z" class="st9" style="fill: rgb(34, 35, 34);"/>
			</g><path d="M 976.799988 739 A 41.5 41.5 0 0 1 935.299988 780.5 A 41.5 41.5 0 0 1 893.799988 739 A 41.5 41.5 0 0 1 935.299988 697.5 A 41.5 41.5 0 0 1 976.799988 739 Z" class="st9" style="fill: rgb(34, 35, 34);" transform="matrix(1, 0, 0, 1, -8.526512829121202e-14, 0)"/><path d="M 954.499989 739 A 19.200001 19.200001 0 0 1 935.299988 758.200001 A 19.200001 19.200001 0 0 1 916.099987 739 A 19.200001 19.200001 0 0 1 935.299988 719.799999 A 19.200001 19.200001 0 0 1 954.499989 739 Z" class="st16" style="fill: rgb(255, 255, 255);" transform="matrix(1, 0, 0, 1, -8.526512829121202e-14, 0)"/><path d="M 943.799988 739 A 8.5 8.5 0 0 1 935.299988 747.5 A 8.5 8.5 0 0 1 926.799988 739 A 8.5 8.5 0 0 1 935.299988 730.5 A 8.5 8.5 0 0 1 943.799988 739 Z" class="st9" style="fill: rgb(34, 35, 34);" transform="matrix(1, 0, 0, 1, -8.526512829121202e-14, 0)"/><path class="st4" d="M1057.9,590.5v66.3c-2.3,1.3-5.1,2.9-8.2,5v-71.3H1057.9z" style="fill: rgb(229, 57, 57);" transform="matrix(1, 0, 0, 1, -5.684341886080802e-14, 0)"/><path class="st9" d="M607.5,770.7L607.5,770.7c-0.6,0-1.2-0.5-1.2-1.2v-64.1c0-0.6,0.5-1.2,1.2-1.2l0,0c0.6,0,1.2,0.5,1.2,1.2&#10;&#9;&#9;&#9;v64.1C608.7,770.2,608.1,770.7,607.5,770.7z" style="fill: rgb(34, 35, 34);" transform="matrix(1, 0, 0, 1, -5.684341886080802e-14, 0)"/><path class="st4" d="M628.4,699.6c0-3.1-1.4-5.8-3.6-7.6c0.3-2.8-0.7-5.7-2.9-7.9c-2.2-2.2-5.1-3.1-7.9-2.9&#10;&#9;&#9;&#9;c-1.8-2.2-4.5-3.6-7.6-3.6c-3.1,0-5.8,1.4-7.6,3.6c-2.8-0.3-5.7,0.7-7.9,2.9c-2.2,2.2-3.1,5.1-2.9,7.9c-2.2,1.8-3.6,4.5-3.6,7.6&#10;&#9;&#9;&#9;c0,3.1,1.4,5.8,3.6,7.6c-0.3,2.8,0.7,5.7,2.9,7.9c2.2,2.2,5.1,3.1,7.9,2.9c1.8,2.2,4.5,3.6,7.6,3.6c3.1,0,5.8-1.4,7.6-3.6&#10;&#9;&#9;&#9;c2.8,0.3,5.7-0.7,7.9-2.9c2.2-2.2,3.1-5.1,2.9-7.9C627,705.4,628.4,702.7,628.4,699.6z" style="fill: rgb(229, 57, 57);" transform="matrix(1, 0, 0, 1, -5.684341886080802e-14, 0)"/><path d="M 615.8 699.299988 A 9.3 9.3 0 0 1 606.5 708.599988 A 9.3 9.3 0 0 1 597.2 699.299988 A 9.3 9.3 0 0 1 606.5 689.999988 A 9.3 9.3 0 0 1 615.8 699.299988 Z" class="st16" style="fill: rgb(255, 255, 255);" transform="matrix(1, 0, 0, 1, -5.684341886080802e-14, 0)"/><path class="st10" d="M618.7,745.2c4.5-1.5,9.4-9,9.4-9s-8.4-3.1-12.9-1.6s-7.4,5.1-6.5,8.1C609.7,745.5,614.2,746.7,618.7,745.2z&#10;&#9;&#9;&#9;" style="fill: rgb(60, 188, 60);" transform="matrix(1, 0, 0, 1, -5.684341886080802e-14, 0)"/><path class="st10" d="M618.7,741.6c-4.3,1.4-8.5,0.5-9.8-2.1c-0.4,1-0.5,2-0.2,3c1,2.9,5.4,4.1,10,2.6c4.5-1.5,9.4-9,9.4-9&#10;&#9;&#9;&#9;s-0.8-0.3-2.1-0.7C624.2,737.7,621.4,740.7,618.7,741.6z" style="fill: rgb(60, 188, 60);" transform="matrix(1, 0, 0, 1, -5.684341886080802e-14, 0)"/><path class="st10" d="M599.7,727.8c-4.5-1.1-12.4,2.6-12.4,2.6s5.3,6.9,9.9,8c4.5,1.1,8.8-0.4,9.5-3.3&#10;&#9;&#9;&#9;C607.3,732.1,604.2,728.9,599.7,727.8z" style="fill: rgb(60, 188, 60);" transform="matrix(1, 0, 0, 1, -5.684341886080802e-14, 0)"/><path class="st10" d="M597.1,735.6c-2.9-0.7-6.2-3.8-8.1-5.9c-1.1,0.4-1.8,0.7-1.8,0.7s5.3,6.9,9.9,8c4.5,1.1,8.8-0.4,9.5-3.3&#10;&#9;&#9;&#9;c0.2-0.8,0.1-1.5-0.2-2.3C605.3,735.4,601.3,736.6,597.1,735.6z" style="fill: rgb(60, 188, 60);" transform="matrix(1, 0, 0, 1, -5.684341886080802e-14, 0)"/><path class="st9" d="M536.6,809.4L536.6,809.4c-0.6,0-1.1-0.5-1.1-1.1v-59.4c0-0.6,0.5-1.1,1.1-1.1l0,0c0.6,0,1.1,0.5,1.1,1.1&#10;&#9;&#9;&#9;v59.4C537.7,808.9,537.2,809.4,536.6,809.4z" style="fill: rgb(34, 35, 34);" transform="matrix(1, 0, 0, 1, -5.684341886080802e-14, 0)"/><path class="st4" d="M556,743.6c0-2.8-1.3-5.4-3.3-7c0.2-2.6-0.6-5.3-2.6-7.3c-2-2-4.7-2.9-7.3-2.6c-1.7-2-4.2-3.3-7-3.3&#10;&#9;&#9;&#9;s-5.4,1.3-7,3.3c-2.6-0.2-5.3,0.6-7.3,2.6c-2,2-2.9,4.7-2.6,7.3c-2,1.7-3.3,4.2-3.3,7c0,2.8,1.3,5.4,3.3,7&#10;&#9;&#9;&#9;c-0.2,2.6,0.6,5.3,2.6,7.3c2,2,4.7,2.9,7.3,2.6c1.7,2,4.2,3.3,7,3.3s5.4-1.3,7-3.3c2.6,0.2,5.3-0.6,7.3-2.6c2-2,2.9-4.7,2.6-7.3&#10;&#9;&#9;&#9;C554.7,748.9,556,746.4,556,743.6z" style="fill: rgb(229, 57, 57);" transform="matrix(1, 0, 0, 1, -5.684341886080802e-14, 0)"/><path d="M 544.300013 743.299988 A 8.6 8.6 0 0 1 535.700012 751.899988 A 8.6 8.6 0 0 1 527.100012 743.299988 A 8.6 8.6 0 0 1 535.700012 734.699987 A 8.6 8.6 0 0 1 544.300013 743.299988 Z" class="st16" style="fill: rgb(255, 255, 255);" transform="matrix(1, 0, 0, 1, -5.684341886080802e-14, 0)"/><path class="st10" d="M547,785.7c4.2-1.4,8.7-8.4,8.7-8.4s-7.8-2.9-12-1.5s-6.9,4.7-6,7.5C538.6,786.1,542.8,787.1,547,785.7z" style="fill: rgb(60, 188, 60);" transform="matrix(1, 0, 0, 1, -5.684341886080802e-14, 0)"/><path class="st10" d="M547,782.5c-4,1.3-7.9,0.4-9.1-1.9c-0.4,0.9-0.5,1.9-0.2,2.8c0.9,2.7,5,3.8,9.3,2.4s8.7-8.4,8.7-8.4&#10;&#9;&#9;&#9;s-0.8-0.3-1.9-0.6C552,778.9,549.4,781.7,547,782.5z" style="fill: rgb(60, 188, 60);" transform="matrix(1, 0, 0, 1, -5.684341886080802e-14, 0)"/><path class="st10" d="M529.3,769.7c-4.2-1-11.5,2.4-11.5,2.4s4.9,6.4,9.1,7.4c4.2,1,8.1-0.4,8.8-3.1S533.5,770.7,529.3,769.7z" style="fill: rgb(60, 188, 60);" transform="matrix(1, 0, 0, 1, -5.684341886080802e-14, 0)"/><path class="st10" d="M527,776.9c-2.7-0.6-5.7-3.5-7.5-5.5c-1,0.4-1.6,0.7-1.6,0.7s4.9,6.4,9.1,7.4s8.1-0.4,8.8-3.1&#10;&#9;&#9;&#9;c0.2-0.7,0.1-1.4-0.2-2.1C534.6,776.7,530.9,777.9,527,776.9z" style="fill: rgb(60, 188, 60);" transform="matrix(1, 0, 0, 1, -5.684341886080802e-14, 0)"/><path class="st10" d="M323.3,762.5c80.3,6.1,102.3,84.6,165.5,58.4c63.2-26.2,107.7-79.4,158.4-45.3s131.7,77.8,131.7,77.8H196.2&#10;&#9;&#9;C196.2,853.5,243,756.4,323.3,762.5z" style="fill: rgb(60, 188, 60);" transform="matrix(1, 0, 0, 1, -2.842170943040401e-14, 0)"/>
</svg>